<svg xmlns="http://www.w3.org/2000/svg" width="682.667" height="682.667" fill-rule="evenodd" clip-rule="evenodd" image-rendering="optimizeQuality" shape-rendering="geometricPrecision" text-rendering="geometricPrecision" viewBox="0 0 7.111 7.111" id="storytelling">
  <path fill="#404077" d="M6.16337 1.57422l-0.00248819 0c0.0464528,0.262429 0.175043,1.03061 0.175043,1.03791l0 3.31638c0,0.0460118 -0.0373189,0.0833307 -0.0833346,0.0833307 -0.0420669,0 -0.131913,-0.00126378 -0.25626,-0.003 -0.305823,-0.00428346 -0.817681,-0.011378 -1.27137,-0.00872835 -0.601114,0.00359843 -0.804248,0.0235039 -0.872654,0.0360276 -0.0260079,0.148114 -0.155575,0.260984 -0.311008,0.260984l-0.746654 0c-0.155429,0 -0.285008,-0.112886 -0.311024,-0.26098 -0.0684055,-0.0125118 -0.271524,-0.0324291 -0.872665,-0.0360236 -0.45363,-0.00264173 -0.965531,0.00444488 -1.27135,0.00872441 -0.124362,0.00173622 -0.214209,0.003 -0.25628,0.003 -0.0460118,0 -0.0833307,-0.037315 -0.0833307,-0.0833307l3.93701e-006 -4.43763c0,-0.0460157 0.0373189,-0.0833307 0.0833346,-0.0833307 0.991004,0 2.06149,0.141547 3.11244,0.141547 0.940894,0 1.86613,-0.141547 2.70463,-0.141547l0.262969 0c0.0460157,0 0.0833307,0.037315 0.0833307,0.0833307 0,0.0460157 -0.037315,0.0833346 -0.0833307,0.0833346z"></path>
  <path fill="#e2e7ec" d="M3.16799 5.83951c-0.022748,0 -0.0450276,-0.0093189 -0.0611102,-0.0266496 -0.344827,-0.371634 -2.04598,-0.473161 -2.67237,-0.480925 -0.0456142,-0.000555118 -0.0823031,-0.0376929 -0.0823031,-0.083315l0 -4.13098c0,-0.0222795 0.0089252,-0.0436378 0.0247756,-0.0592953 0.0158465,-0.0156496 0.0374409,-0.0244409 0.0595827,-0.0240394 0.00576378,7.08661e-005 0.583043,0.0078622 1.20723,0.0744882 0.853346,0.0910709 1.38671,0.245744 1.58526,0.459728 0.0142953,0.0154016 0.022252,0.0356535 0.022252,0.056685l0 4.13097c0,0.0342795 -0.0209882,0.0650591 -0.0528858,0.0775709 -0.0098937,0.00388583 -0.0202126,0.00575984 -0.030437,0.00575984z"></path>
  <path fill="#e2e7ec" d="M3.16795 5.8395c-0.0102205,0 -0.0205433,-0.00188976 -0.0304173,-0.00576378 -0.0318976,-0.0125118 -0.0528858,-0.0432874 -0.0528858,-0.0775669l-3.93701e-006 -4.13097c0,-0.0210276 0.00794094,-0.0412756 0.022252,-0.0566811 0.198551,-0.21398 0.731906,-0.368646 1.58527,-0.459732 0.624181,-0.0666063 1.20148,-0.0744134 1.20723,-0.0744843 0.000346457,0 0.000692913,0 0.00102756,0 0.0219016,0 0.0429606,0.0086378 0.0585669,0.0240394 0.0158465,0.0156535 0.0247677,0.0370118 0.0247677,0.0592913l0 0.828697c0,1.92958 0,1.253 0,1.27583l0 2.02646c0,0.0456299 -0.0366929,0.0827677 -0.0823031,0.0833189 -0.626398,0.00776378 -2.32755,0.109287 -2.67237,0.480921 -0.0160984,0.0173228 -0.038378,0.0266378 -0.061126,0.0266378z"></path>
  <path fill="#bfbfbf" d="M2.79107 2.25012c-.022374 0-.0446811-.00896063-.0611142-.0266496-.244272-.263272-1.46772-.335327-1.91852-.340882-.0460157-.000566929-.082874-.0383346-.0823031-.0843425.000566929-.0456693.0377638-.0823031.0833071-.0823031.000346457 0 .000692913 0 .00103937 0 .00417717.0000551181.423299.00570472.876331.0540551.632378.0674843 1.01258.178748 1.16232.340122.0313071.0337362.0293307.0864685-.00440551.11776-.0160276.0148819-.0363622.0222402-.0566496.0222402zM2.79107 2.83168c-.022374 0-.0446929-.00896063-.0611142-.0266535-.244272-.263268-1.46772-.335343-1.91852-.340878-.0460157-.000566929-.082874-.0383386-.0823031-.0843465.000566929-.0456693.0377638-.0823031.0833071-.0823031.000346457 0 .000692913 0 .00103937 0 .00417717.0000590551.423299.00570472.876331.0540551.632394.0674843 1.01258.178748 1.16232.340122.0313071.0337362.0293307.0864724-.00440551.11776-.0160276.0148819-.0363622.0222441-.0566496.0222441zM2.79107 3.41323c-.022374 0-.0446811-.00896063-.0611142-.0266496-.244272-.26326-1.46772-.335327-1.91852-.340882-.0460157-.000566929-.082874-.0383346-.0823031-.0843465.000566929-.0456772.0377638-.0823031.0833071-.0823031.000346457 0 .000692913 0 .00103937 0 .00417717.0000590551.423299.00570866.876331.0540709.632378.0674843 1.01258.178732 1.16232.340102.0313071.0337362.0293307.0864724-.00440551.117764-.0160276.0148819-.0363622.0222441-.0566496.0222441zM2.79107 3.99478c-.022374 0-.0446811-.00896063-.0611142-.0266496-.244272-.26326-1.46772-.335343-1.91852-.340882-.0460157-.000566929-.082874-.0383346-.0823031-.0843465.000566929-.0456654.0377638-.0823031.0833071-.0823031.000346457 0 .000692913 0 .00103937 0 .00417717.0000590551.423299.00570866.876331.0540591.632378.0674843 1.01258.178748 1.16232.340118.0313071.0337402.0293307.0864724-.00440551.117764-.0160276.0148819-.0363622.0222402-.0566496.0222402zM2.79107 4.57633c-.022374 0-.0446811-.00896063-.0610984-.0266496-.244272-.263248-1.46774-.335331-1.91854-.340882-.0460157-.000559055-.082874-.0383346-.0823031-.0843465.000566929-.0456693.0377638-.0823031.0833071-.0823031.000346457 0 .000692913 0 .00103937.000015748.00417717.0000433071.423299.00570472.876331.0540551.632378.0674882 1.01258.178732 1.16232.340106.0313071.0337362.0293346.0864724-.00440551.117764-.0160315.0148819-.0363661.0222402-.0566535.0222402zM2.79107 5.15789c-.022374 0-.0446811-.00896063-.0611142-.0266496-.244161-.263134-1.46768-.335287-1.91854-.340882-.0460157-.000566929-.0828583-.0383346-.0822913-.0843465.000566929-.0456654.0377638-.0823031.0833071-.0823031.000346457 0 .000692913 0 .00103937.000015748.00417717.0000433071.423283.00569685.876331.0540591.632378.0674843 1.01258.178732 1.16232.340102.0313071.0337402.0293307.0864724-.00440551.117764-.0160276.0148819-.0363622.0222402-.0566496.0222402zM3.54487 2.25012c-.0202756 0-.0406063-.00735827-.0566654-.022252-.0337362-.0313031-.0357047-.0840236-.00440551-.11776.149748-.161374.529953-.272622 1.16233-.340122.453047-.0483425.872154-.0539961.876331-.0540551.000346457 0 .000708661 0 .00105512 0 .0455276 0 .0827323.0366378.0832913.0823031.000566929.0460157-.0362638.0837874-.0822953.0843622-.450835.00559449-1.67437.0777362-1.91855.340882-.0163937.017689-.0387008.0266417-.0610906.0266417zM3.54487 2.83168c-.0202756 0-.0406063-.0073622-.0566654-.022252-.0337362-.0313071-.0357047-.0840276-.00440551-.117764.149748-.16137.529953-.272634 1.16233-.340118.453047-.0483465.872154-.054.876331-.0540591.000346457 0 .000708661 0 .00105512 0 .0455276 0 .0827323.0366417.0832913.0823031.000566929.0460157-.0362638.0837913-.0822953.0843622-.450835.00559449-1.67437.077748-1.91855.340882-.0163937.017689-.0387008.0266457-.0610906.0266457zM3.54487 3.41323c-.0202756 0-.0406063-.00735827-.0566654-.022252-.0337362-.0313031-.0357047-.0840236-.00440551-.11776.123264-.132843.402331-.231094.85311-.300343.348441-.0535276.719669-.0770394.969748-.0873307.0461772-.00223622.0847913.0338465.0866929.0798307.00188976.0459843-.0338622.0847913-.0798307.086689-.909614.0374606-1.54795.162512-1.70756.334528-.0163937.0176772-.0387008.0266378-.0610906.0266378zM3.54487 3.99478c-.0202756 0-.040622-.00735827-.0566654-.022252-.0337362-.0313071-.0357047-.0840394-.00440551-.11776.177331-.19111.696295-.316484 1.54249-.372634.0461339-.00287795.085626.0317047.0886654.077626.00305512.0459291-.0316969.085626-.077626.0886654-.768445.051-1.29016.167524-1.43137.319701-.0163937.0177008-.0387008.0266535-.0610906.0266535zM3.54487 4.57633c-.0202756 0-.040622-.00735827-.0566654-.022252-.0337362-.0313071-.0357047-.0840394-.00440551-.117764.149736-.16137.529937-.272618 1.16232-.340102.453047-.0483346.872154-.0540157.876331-.0540591.000346457-.000015748.000708661-.000015748.00105512-.000015748.0455276 0 .0827362.0366417.0832913.0823031.000566929.0460157-.0362598.0837795-.0822913.0843465-.450839.00559449-1.67438.0777638-1.91855.340882-.0163858.0177165-.0386929.0266614-.0610827.0266614zM3.54487 5.15789c-.0202756 0-.0406063-.00735827-.0566654-.022252-.0337362-.0313071-.0357047-.0840394-.00440551-.11776.149748-.161374.529953-.272638 1.16233-.340106.453047-.0483465.872154-.0540157.876331-.0540551.000346457-.000015748.000708661-.000015748.00105512-.000015748.0455276 0 .0827323.0366378.0832913.0823031.000566929.0460118-.0362638.0837756-.0822953.0843425-.450835.00559843-1.67437.077748-1.91855.340882-.0163937.0177165-.0387008.0266614-.0610906.0266614z"></path>
  <path fill="#ff8b00" d="M4.99661 4.23257c-0.014374,0 -0.0287638,-0.00372047 -0.0416772,-0.0111811 -0.0273346,-0.0157874 -0.0434016,-0.0456654 -0.0415039,-0.0771811l0.0429213 -0.711807c0.000791339,-0.0129173 0.00455512,-0.0254567 0.0110118,-0.0366535l1.4092 -2.4408c0.0502126,-0.0869606 0.144083,-0.140969 0.245024,-0.140969 0.0492756,0 0.0978898,0.0130315 0.140555,0.0376535l0.207898 0.120024c0.0651102,0.0375945 0.11172,0.0984685 0.131272,0.171441 0.0195512,0.0729843 0.00961417,0.149024 -0.0279803,0.214122l-1.40919 2.4408c-0.00647244,0.0112047 -0.0154685,0.0207441 -0.0262756,0.0278858l-0.595366 0.39287c-0.0138898,0.00918504 -0.029874,0.0137992 -0.0458898,0.0137992z"></path>
  <polygon fill="#f5f5f5" points="6.035 1.547 6.24 1.191 6.937 1.593 6.732 1.949"></polygon>
  <path fill="#f5f5f5" d="M5.31567 3.68025c-0.0141378,0 -0.0284567,-0.00361024 -0.0415866,-0.0111811 -0.0398622,-0.0230118 -0.0535079,-0.0739724 -0.0304961,-0.113827l1.10925 -1.92126c0.0230039,-0.0398268 0.0739409,-0.0535 0.113831,-0.0304961 0.0398622,0.0230118 0.0535118,0.0739843 0.0304961,0.113831l-1.10924 1.92126c-0.0154252,0.0267244 -0.0434213,0.0416772 -0.072248,0.0416772z"></path>
  <path fill="#ffd47d" d="M4.99661 4.23257c-0.014374,0 -0.0287638,-0.00372047 -0.0416772,-0.0111811 -0.0273346,-0.0157874 -0.0434016,-0.0456654 -0.0415039,-0.0771811l0.0429213 -0.711807c0.000791339,-0.0129173 0.00455512,-0.0254567 0.0110118,-0.0366535l0.0416575 -0.0721457 0.696776 0.402268 -0.0416535 0.0721457c-0.00647244,0.0112047 -0.0154685,0.0207441 -0.0262756,0.0278858l-0.595366 0.39287c-0.0138898,0.00918504 -0.029874,0.0137992 -0.0458898,0.0137992z"></path>
  <path fill="#7e7e7e" d="M4.92986 3.87183l-0.0120394 0.199669 -0.00438583 0.0727126c-0.00189764,0.0315157 0.0141693,0.0613937 0.0415039,0.0771811 0.0119882,0.0069252 0.025248,0.0106299 0.0385866,0.011126 0.0010315,3.54331e-005 0.00205906,5.51181e-005 0.00309055,5.51181e-005 0.00493701,0 0.00987402,-0.000437008 0.014748,-0.00131496 0.0109291,-0.00196457 0.0215394,-0.00612992 0.0311417,-0.0124843l0.221516 -0.146177c-0.00179134,-0.00737402 -0.00388189,-0.0146339 -0.00625984,-0.0217598 -0.0363189,-0.108909 -0.139098,-0.187425 -0.260217,-0.187425 -0.0233583,0 -0.0460354,0.00292126 -0.067685,0.00841732z"></path>
</svg>