<svg xmlns="http://www.w3.org/2000/svg" viewBox="0 0 64 64" id="calendar">
  <rect width="58" height="53" x="3" y="8" fill="#c1272d" rx="2"></rect>
  <rect width="56" height="53" x="5" y="8" fill="#ce3843" rx="2"></rect>
  <path fill="#ddd" d="M32 13h0a2 2 0 0 1-2-2V5a2 2 0 0 1 2-2h0a2 2 0 0 1 2 2v6A2 2 0 0 1 32 13zM43 13h0a2 2 0 0 1-2-2V5a2 2 0 0 1 2-2h0a2 2 0 0 1 2 2v6A2 2 0 0 1 43 13zM54 13h0a2 2 0 0 1-2-2V5a2 2 0 0 1 2-2h0a2 2 0 0 1 2 2v6A2 2 0 0 1 54 13zM12 5v6a2 2 0 0 1-4 0V5a2 2 0 0 1 3-1.73 1.81 1.81 0 0 1 .41.32A2 2 0 0 1 12 5z"></path>
  <path fill="#e8e8e8" d="M12,5v6a2,2,0,0,1-1,1.73A2,2,0,0,1,10,11V5a2,2,0,0,1,1-1.73,1.81,1.81,0,0,1,.41.32A2,2,0,0,1,12,5Z"></path>
  <path fill="#e2e0e0" d="M57,23V49A.09.09,0,0,1,57,49l-4,4-4,4A.09.09,0,0,1,49,57H8a1,1,0,0,1-1-1V23Z"></path>
  <path fill="#f7f5f5" d="M57,23V49A.09.09,0,0,1,57,49l-4,4-4,4A.09.09,0,0,1,49,57H10a1,1,0,0,1-1-1V23Z"></path>
  <path fill="#ea2a41" d="M57,18v5H7V18a1,1,0,0,1,1-1H56A1,1,0,0,1,57,18Z"></path>
  <path fill="#f23d5b" d="M57,18v5H9V18a1,1,0,0,1,1-1H56A1,1,0,0,1,57,18Z"></path>
  <path fill="#d1d1d1" d="M43.35 46.26l-3.21 3.21-7-9.09L28.9 44.66 30 51.08l-2.14 2.14-3.21-4.28L23.55 46.8l-.07 0-2.07-1-4.28-3.21 2.14-2.14 6.42 1.07L30 37.17l-9.1-7L24.08 27l11.24 4.82 3.75-3.75A2.26 2.26 0 0 1 42.22 28l.06.05a2.28 2.28 0 0 1 0 3.21L38.53 35zM56.76 49H50a1 1 0 0 0-1 1v6.76a.1.1 0 0 0 .17.07l7.66-7.66A.1.1 0 0 0 56.76 49z"></path>
  <path fill="#ddd" d="M21,13h0a2,2,0,0,1-2-2V5a2,2,0,0,1,2-2h0a2,2,0,0,1,2,2v6A2,2,0,0,1,21,13Z"></path>
  <path fill="#e8e8e8" d="M23 5v6a2 2 0 0 1-1 1.73A2 2 0 0 1 21 11V5a2 2 0 0 1 1-1.73 1.81 1.81 0 0 1 .41.32A2 2 0 0 1 23 5zM34 5v6a2 2 0 0 1-1 1.73A2 2 0 0 1 32 11V5a2 2 0 0 1 1-1.73 1.81 1.81 0 0 1 .41.32A2 2 0 0 1 34 5zM45 5v6a2 2 0 0 1-1 1.73A2 2 0 0 1 43 11V5a2 2 0 0 1 1-1.73 1.81 1.81 0 0 1 .41.32A2 2 0 0 1 45 5zM56 5v6a2 2 0 0 1-1 1.73A2 2 0 0 1 54 11V5a2 2 0 0 1 1-1.73 1.81 1.81 0 0 1 .41.32A2 2 0 0 1 56 5z"></path>
  <g>
    <path d="M59,7H57V5a3,3,0,0,0-6,0V7H46V5a3,3,0,0,0-6,0V7H35V5a3,3,0,0,0-6,0V7H24V5a3,3,0,0,0-6,0V7H13V5A3,3,0,0,0,7,5V7H5a3,3,0,0,0-3,3V59a3,3,0,0,0,3,3H59a3,3,0,0,0,3-3V10A3,3,0,0,0,59,7ZM53,5a1,1,0,0,1,2,0v6a1,1,0,0,1-2,0ZM42,5a1,1,0,0,1,2,0v6a1,1,0,0,1-2,0ZM31,5a1,1,0,0,1,2,0v6a1,1,0,0,1-2,0ZM20,5a1,1,0,0,1,2,0v6a1,1,0,0,1-2,0ZM9,5a1,1,0,0,1,2,0v6a1,1,0,0,1-2,0ZM60,59a1,1,0,0,1-1,1H5a1,1,0,0,1-1-1V10A1,1,0,0,1,5,9H7v2a3,3,0,0,0,6,0V9h5v2a3,3,0,0,0,6,0V9h5v2a3,3,0,0,0,6,0V9h5v2a3,3,0,0,0,6,0V9h5v2a3,3,0,0,0,6,0V9h2a1,1,0,0,1,1,1Z"></path>
    <path d="M56,16H8a2,2,0,0,0-2,2V56a2,2,0,0,0,2,2H49l.48,0,.44-.43,7.66-7.66.14-.14.32-.37V18A2,2,0,0,0,56,16ZM50,54.59V50h4.59ZM56,48H50a2,2,0,0,0-2,2v6H8V24H56ZM8,22V18H56v4Z"></path>
    <path d="M22.8,47.54l.92,1.85,4,5.35L31,51.42,30,45l3.11-3.11L40,51l4.49-4.5L39.72,35.25,43,32a3.27,3.27,0,0,0-4.63-4.63l-3.27,3.27L23.86,25.81l-4.5,4.5,9.1,7-3.11,3.11-6.42-1.07-3.32,3.32,5.2,3.9Zm-3.19-6.09L26,42.52l5.46-5.45-9.1-7,1.92-1.92L35.55,33l4.22-4.22a1.27,1.27,0,0,1,1.8,1.79L37.35,34.8,42.16,46,40.24,48l-7-9.1-5.45,5.46,1.07,6.42-1,1-2.47-3.29-1.18-2.36-2.35-1.18-3.29-2.46Z"></path>
  </g>
</svg>